<svg width="45" height="45" viewBox="0 0 45 45" fill="none" xmlns="http://www.w3.org/2000/svg">
<path fill-rule="evenodd" clip-rule="evenodd" d="M27.8454 43.7786C27.8454 43.6803 27.9447 43.606 28.0469 43.606H28.1521L28.2689 43.1574C28.2952 43.0721 28.3711 43.0288 28.4705 43.0288C28.561 43.0371 28.6487 43.1079 28.6456 43.1953C28.6456 43.2008 28.6456 43.2173 28.6398 43.2311L28.5434 43.606H28.6778L28.7947 43.1574C28.8209 43.0721 28.8968 43.0288 28.9962 43.0288C29.0954 43.0371 29.1773 43.1107 29.1714 43.2008C29.1714 43.209 29.1685 43.22 29.1655 43.2311L29.0691 43.606C29.1685 43.6087 29.2649 43.683 29.2649 43.7786C29.2649 43.877 29.1773 43.9534 29.0633 43.9534H28.9816L28.9523 44.0579H28.9757C29.0779 44.0579 29.1773 44.1343 29.1773 44.2326C29.1773 44.331 29.0896 44.4081 28.9757 44.4081H28.8647L28.7479 44.8621C28.7216 44.9467 28.6456 44.9907 28.5464 44.9907C28.4471 44.9852 28.3681 44.9116 28.3681 44.8208L28.3741 44.7967L28.4733 44.4081H28.3391L28.2221 44.8621C28.1958 44.9467 28.1199 44.9907 28.0206 44.9907C27.9271 44.9825 27.8425 44.9116 27.8425 44.8208L27.8483 44.7967L27.9476 44.4081C27.8396 44.4026 27.7578 44.3283 27.7578 44.2326C27.7578 44.1343 27.8571 44.0579 27.9593 44.0579H28.0352L28.0644 43.9534H28.0469C27.933 43.9534 27.8454 43.877 27.8454 43.7786ZM28.5914 43.9537H28.4571L28.4279 44.0582H28.5623L28.5914 43.9537Z" fill="#800A7A"/>
<path d="M29.9539 44.1819H30.506C30.6198 44.1819 30.7074 44.1049 30.7074 44.0065C30.7074 43.9082 30.6082 43.8339 30.506 43.8339H29.9539V43.3909H30.5613C30.6723 43.3909 30.7659 43.32 30.7659 43.2209C30.7659 43.1253 30.6723 43.0435 30.5613 43.0435H29.7699C29.6413 43.0435 29.5449 43.1418 29.5449 43.2374V44.8251C29.5449 44.918 29.6355 44.9999 29.7495 44.9999C29.8605 44.9999 29.9539 44.918 29.9539 44.8251V44.1819Z" fill="#800A7A"/>
<path fill-rule="evenodd" clip-rule="evenodd" d="M31.9184 44.5947H31.2962L31.1999 44.8713C31.1707 44.9511 31.0772 44.9999 31.0071 44.9999C30.8933 44.9999 30.7969 44.9291 30.7969 44.8252C30.7969 44.8114 30.7997 44.7784 30.8055 44.7646L31.3751 43.2079C31.4131 43.1006 31.4714 43.0215 31.6117 43.0215C31.7519 43.0215 31.8103 43.0978 31.8511 43.2079L32.4207 44.7646C32.4265 44.7784 32.4295 44.8114 32.4295 44.8252C32.4295 44.9291 32.3389 44.9999 32.2192 44.9999C32.1432 44.9999 32.0498 44.9483 32.0206 44.8713L31.9184 44.5947ZM31.4068 44.284H31.8157L31.6667 43.8162C31.6404 43.7364 31.6258 43.6326 31.6141 43.5479C31.6025 43.6326 31.5879 43.7364 31.5616 43.8162L31.4068 44.284Z" fill="#800A7A"/>
<path d="M33.5606 44.4173C33.5606 44.5679 33.4584 44.6525 33.2568 44.6525C33.1312 44.6525 33.0378 44.6195 32.9677 44.5975C32.9122 44.5789 32.8655 44.5652 32.8216 44.5652C32.7136 44.5652 32.6289 44.6498 32.6289 44.7371C32.6289 44.9291 33.0378 44.9999 33.254 44.9999C33.6715 44.9999 33.9811 44.7812 33.9811 44.4007C33.9811 44.0121 33.6687 43.9192 33.3825 43.8346C33.3181 43.8181 33.248 43.7961 33.1721 43.7603C33.1224 43.7383 33.0494 43.6977 33.0494 43.5773C33.0494 43.4157 33.1839 43.3689 33.327 43.3689C33.4292 43.3689 33.4934 43.3909 33.5489 43.4102C33.5986 43.4239 33.6395 43.4404 33.692 43.4404C33.8205 43.4404 33.8965 43.3579 33.8965 43.2678C33.8965 43.0628 33.4818 43.0215 33.3093 43.0215C32.8946 43.0215 32.6318 43.2347 32.6318 43.5883C32.6318 43.9846 32.9414 44.0754 33.2276 44.1572C33.3065 44.182 33.3795 44.2068 33.4409 44.2308C33.4934 44.2528 33.5606 44.2941 33.5606 44.4173Z" fill="#800A7A"/>
<path d="M34.6545 44.8243C34.6545 44.9172 34.7451 44.9998 34.8591 44.9998C34.9701 44.9998 35.0635 44.9172 35.0635 44.8243V43.3928H35.3732C35.4841 43.3928 35.5805 43.3137 35.5805 43.2208C35.5805 43.1225 35.4783 43.0454 35.3732 43.0454H34.3449C34.2311 43.0454 34.1406 43.1438 34.1406 43.2208C34.1406 43.3137 34.2281 43.3928 34.3449 43.3928H34.6545V44.8243Z" fill="#800A7A"/>
<path d="M37.0945 44.1819H37.6466C37.7604 44.1819 37.8481 44.1049 37.8481 44.0065C37.8481 43.9082 37.7488 43.8339 37.6466 43.8339H37.0945V43.3909H37.7019C37.813 43.3909 37.9064 43.32 37.9064 43.2209C37.9064 43.1253 37.813 43.0435 37.7019 43.0435H36.9105C36.7819 43.0435 36.6855 43.1418 36.6855 43.2374V44.8251C36.6855 44.918 36.7761 44.9999 36.8901 44.9999C37.0011 44.9999 37.0945 44.918 37.0945 44.8251V44.1819Z" fill="#800A7A"/>
<path fill-rule="evenodd" clip-rule="evenodd" d="M39.638 44.2804C39.638 44.68 39.3839 44.9999 38.8786 44.9999C38.3732 44.9999 38.1191 44.68 38.1191 44.2804V43.7383C38.1191 43.3496 38.3323 43.0215 38.8786 43.0215C39.4248 43.0215 39.638 43.3496 39.638 43.7383V44.2804ZM39.2273 43.7381C39.2273 43.5166 39.1338 43.3687 38.8769 43.3687C38.6199 43.3687 38.5264 43.5166 38.5264 43.7381V44.2802C38.5264 44.499 38.6373 44.6524 38.8769 44.6524C39.1163 44.6524 39.2273 44.499 39.2273 44.2802V43.7381Z" fill="#800A7A"/>
<path fill-rule="evenodd" clip-rule="evenodd" d="M41.4211 44.2804C41.4211 44.68 41.167 44.9999 40.6617 44.9999C40.1564 44.9999 39.9023 44.68 39.9023 44.2804V43.7383C39.9023 43.3496 40.1155 43.0215 40.6617 43.0215C41.2078 43.0215 41.4211 43.3496 41.4211 43.7383V44.2804ZM41.0105 43.7381C41.0105 43.5166 40.917 43.3687 40.66 43.3687C40.403 43.3687 40.3096 43.5166 40.3096 43.7381V44.2802C40.3096 44.499 40.4205 44.6524 40.66 44.6524C40.8996 44.6524 41.0105 44.499 41.0105 44.2802V43.7381Z" fill="#800A7A"/>
<path fill-rule="evenodd" clip-rule="evenodd" d="M43.18 43.763V44.2335C43.18 44.6195 42.9552 44.9751 42.2922 44.9751H41.9622C41.8395 44.9751 41.7344 44.885 41.7344 44.7784V43.2402C41.7344 43.1336 41.8395 43.0435 41.9622 43.0435H42.2922C42.9523 43.0435 43.18 43.3826 43.18 43.763ZM42.3396 44.6301C42.6609 44.6301 42.7689 44.4526 42.7689 44.2359V43.7654C42.7689 43.5576 42.655 43.3932 42.3396 43.3932H42.141V44.6301H42.3396Z" fill="#800A7A"/>
<path fill-rule="evenodd" clip-rule="evenodd" d="M18.9722 18.6622C18.838 14.1967 18.3801 10.354 19.9671 6.01682C20.1846 5.14242 19.4846 4.65579 17.867 4.55687C16.2464 4.62483 14.6272 6.17228 13.0095 9.19902C12.539 10.0213 12.2788 9.98812 12.2287 9.09934C12.6634 4.76572 12.8809 2.59887 12.8809 2.59887C12.8272 -0.115274 11.5233 -0.703506 8.96937 0.834109C7.49963 1.71897 6.52619 2.88201 5.49453 4.192C3.22073 7.0795 1.66061 10.2982 0.814406 13.8478C0.23206 16.291 -0.588304 21.901 0.632698 24.1394C1.35777 25.4685 4.39085 27.5577 5.50819 25.8331C5.71927 25.4857 5.69151 24.5377 5.60246 23.4873C5.33595 20.3429 5.20263 18.3103 5.79195 15.0975C6.20536 12.8443 6.89144 10.7015 7.85064 8.66912C8.23704 7.79878 9.59247 5.89822 9.43286 8.23147C9.41913 11.6462 9.67132 14.0044 10.1895 15.3059C10.708 16.4034 11.2864 16.3272 11.9248 15.0773C12.6871 13.0249 13.4579 11.2531 14.2369 9.762C14.5614 9.20156 14.913 8.66217 15.2921 8.14404C15.7737 7.3947 15.9022 7.63409 15.6774 8.86222C15.3637 10.7606 13.9736 19.5593 17.0035 19.9542C18.3196 19.9287 18.9758 19.4981 18.9722 18.6622Z" fill="#800A7A"/>
<path fill-rule="evenodd" clip-rule="evenodd" d="M24.0555 18.7671C18.4152 20.4203 17.5284 1.61068 26.843 5.67663C26.843 5.67663 26.7213 4.93596 27.0532 4.54723C27.477 4.05083 29.6263 4.33342 29.4606 5.35249C29.3539 6.00911 29.1332 6.84837 28.8885 7.77902C28.0381 11.0127 26.8976 15.3497 29.2405 16.9621C29.2405 16.9621 29.3853 17.3429 29.0268 17.382C28.6909 17.4186 26.7332 17.471 25.7467 15.8474C25.6804 15.7382 25.6024 15.558 25.5681 15.3894C25.0895 16.9841 24.4786 18.6431 24.0555 18.7671ZM23.7399 16.0268C24.1914 15.8946 26.083 8.73129 26.083 8.73129C26.4094 7.22897 24.6092 5.69638 23.6008 7.40026C20.9898 11.812 22.9499 16.2584 23.7399 16.0268Z" fill="#800A7A"/>
<path d="M36.0983 12.7385C35.8058 12.0001 35.5407 11.1926 35.2983 10.3699C37.7014 7.57083 40.5236 4.94542 40.6099 4.70933C41.038 3.75039 38.2264 2.90715 37.7195 3.31412C37.328 3.6029 37.3713 4.94776 37.3713 4.94776C36.8961 6.18517 35.9319 7.43318 34.8392 8.62959C34.2868 6.51186 33.8993 4.71002 33.6584 4.55483C32.9753 4.13163 30.2186 4.21321 30.1307 4.79388C30.0692 5.24707 31.12 6.22163 31.12 6.22163C31.5413 7.57503 32.1713 9.18762 32.8334 10.6963C30.8935 12.6779 29.1347 14.4561 29.4612 15.7768C29.8984 17.5455 31.6504 17.6124 31.9732 17.6306C32.3235 17.644 32.2639 17.2855 32.2639 17.2855C31.9997 17.0359 31.8745 16.2953 31.8745 16.2953C31.7639 15.38 32.5151 13.972 33.643 12.45C34.3606 13.9491 35.0696 15.1792 35.487 15.6974C36.1407 16.4699 36.884 16.3172 37.16 16.1467C37.2985 16.0651 37.2705 15.9543 37.2368 15.8619C36.0983 12.7385 36.4297 13.5757 36.0983 12.7385Z" fill="#800A7A"/>
<path d="M41.2728 22.6164C41.0147 22.9377 41.2056 24.0576 41.2056 24.0576C40.3296 26.6365 39.5224 28.8619 38.3632 31.3797C37.1923 33.9229 36.6973 32.4569 37.2558 30.6202C38.0661 27.9546 39.1687 23.6593 39.1684 23.4075C39.1664 22.3722 37.1466 21.7985 36.8151 22.1817C36.5342 22.5063 36.7477 23.6235 36.7477 23.6235C35.9796 25.9142 33.8099 32.5856 35.9117 34.5943C36.9836 35.6186 37.6449 35.4287 38.0933 34.7855C38.2407 34.5743 39.3294 32.2389 39.8127 30.947C40.2103 29.8835 40.5072 29.5258 39.9784 31.6397C39.7098 32.7135 38.6068 39.3876 36.9866 38.9556C35.6557 38.6014 36.1226 39.5486 37.0293 39.636C39.9768 39.9194 39.9393 39.1579 40.7089 36.3361C41.0484 35.1315 41.719 31.2559 42.5217 27.7805C43.0731 25.7485 43.7346 24.0349 43.7497 23.8368C43.7219 22.807 41.628 22.2291 41.2728 22.6164Z" fill="#800A7A"/>
<path fill-rule="evenodd" clip-rule="evenodd" d="M29.586 36.9637C24.1096 38.5686 23.7579 20.0191 32.8021 23.967C32.8021 23.967 32.6838 23.2482 33.006 22.8705C33.4175 22.3883 35.5044 22.6628 35.3436 23.6527C35.2412 24.283 35.0299 25.0911 34.7953 25.9887C33.9742 29.1298 32.8666 33.3673 35.1298 34.9247C35.1298 34.9247 35.2704 35.2948 34.9224 35.3327C34.5962 35.3684 32.6952 35.4193 31.7375 33.8427C31.6731 33.7367 31.5973 33.5613 31.564 33.3976C31.0994 34.9461 29.9967 36.8433 29.586 36.9637ZM29.2838 34.2987C29.7221 34.1707 32.0683 26.9291 32.0683 26.9291C32.3852 25.4701 30.6371 23.9821 29.6581 25.6365C27.1232 29.9201 28.5169 34.5236 29.2838 34.2987Z" fill="#800A7A"/>
<path fill-rule="evenodd" clip-rule="evenodd" d="M24.2339 26.6196C23.7139 30.7237 23.5331 33.5015 24.6101 37.6214C24.733 38.4441 24.0448 38.8376 22.5455 38.8025C21.0584 38.614 19.3157 37.4253 18.0939 34.5106C17.7334 33.7161 17.4907 33.7264 17.3657 34.5416C17.3813 38.5686 17.3892 40.5821 17.3892 40.5821C17.0988 43.0785 16.3303 43.428 14.1138 41.8121C12.8382 40.8827 12.0443 39.7346 11.2102 38.4475C9.37151 35.6099 8.21974 32.5219 7.75538 29.1855C7.43572 26.8893 7.17825 21.6557 8.50181 19.6883C9.28782 18.5205 11.783 16.9229 12.6593 18.5992C12.823 18.9355 12.7132 19.8066 12.538 20.7676C12.0131 23.6444 11.7096 25.5066 11.9675 28.5128C12.1482 30.6212 12.5901 32.6491 13.2934 34.5966C13.5722 35.429 14.6523 37.2857 14.7124 35.1236C15.0031 31.9757 15.4449 29.8225 16.0379 28.6641C16.6131 27.6928 17.1392 27.8083 17.6165 29.0094C17.9274 30.1761 18.2502 31.2506 18.5847 32.2323C18.9725 33.3715 19.1949 34.1839 20.0126 35.1201C20.4983 35.6759 21.0246 36.0034 20.9104 34.6654C20.79 32.8913 19.7079 25.4034 22.5347 25.2755C23.7451 25.4013 24.3116 25.8499 24.2339 26.6196Z" fill="#800A7A"/>
<path fill-rule="evenodd" clip-rule="evenodd" d="M44.9992 23.4964L43.5353 22.2692C40.0356 19.8092 33.8975 20.5377 28.2023 22.0491C23.7502 23.2309 20.7964 25.0965 17.8227 26.0974C16.5147 26.4943 14.8751 26.2632 14.4442 25.0676C14.0768 24.0488 14.2648 23.2563 15.5282 22.4749C20.0242 19.6916 43.9265 14.1114 44.9992 23.4964Z" fill="#F1B301"/>
</svg>
