<svg width="15" height="18" viewBox="0 0 15 18" fill="none" xmlns="http://www.w3.org/2000/svg">
<path fill-rule="evenodd" clip-rule="evenodd" d="M3.33333 5.83333V4.16667C3.33333 1.86548 5.19881 0 7.5 0C9.80119 0 11.6667 1.86548 11.6667 4.16667V5.83333H14.1667C14.6269 5.83333 15 6.20643 15 6.66667V16.6667C15 17.1269 14.6269 17.5 14.1667 17.5H0.833333C0.373096 17.5 0 17.1269 0 16.6667V6.66667C0 6.20643 0.373096 5.83333 0.833333 5.83333H3.33333ZM3.33333 7.5H1.66667V15.8333H13.3333V7.5H11.6667V9.16667H10V7.5H5V9.16667H3.33333V7.5ZM10 4.16602V5.83268H5V4.16602C5 2.7853 6.11929 1.66602 7.5 1.66602C8.88071 1.66602 10 2.7853 10 4.16602Z" fill="#F1B301"/>
</svg>
